<?xml version="1.0" encoding="utf-8"?>
<!-- Generator: Adobe Illustrator 25.0.1, SVG Export Plug-In . SVG Version: 6.00 Build 0)  -->
<svg version="1.1" id="Layer_1" xmlns="http://www.w3.org/2000/svg" xmlns:xlink="http://www.w3.org/1999/xlink" x="0px" y="0px"
	 viewBox="0 0 211.4 124.8" style="enable-background:new 0 0 211.4 124.8;" xml:space="preserve">
<style type="text/css">
	.st0{clip-path:url(#SVGID_2_);}
	.st1{clip-path:url(#SVGID_4_);fill:#FFFFFF;}
	.st2{clip-path:url(#SVGID_6_);fill:#E3232D;}
	.st3{clip-path:url(#SVGID_8_);fill:#FFFFFF;}
	.st4{clip-path:url(#SVGID_10_);fill:#FFFFFF;}
	.st5{clip-path:url(#SVGID_12_);fill:#FFFFFF;}
	.st6{clip-path:url(#SVGID_14_);fill:#FFFFFF;}
	.st7{clip-path:url(#SVGID_16_);fill:#FFFFFF;}
	.st8{clip-path:url(#SVGID_18_);fill:#231F20;}
	.st9{clip-path:url(#SVGID_20_);fill:#231F20;}
	.st10{clip-path:url(#SVGID_22_);fill:#E3232D;}
	.st11{clip-path:url(#SVGID_24_);fill:#231F20;}
	.st12{clip-path:url(#SVGID_26_);fill:#231F20;}
	.st13{clip-path:url(#SVGID_30_);}
	.st14{clip-path:url(#SVGID_32_);}
	.st15{fill:#E3232D;}
	.st16{clip-path:url(#SVGID_34_);fill:#E3232D;}
</style>
<g id="Vector_Smart_Object_1_">
	<g>
		<g>
			<defs>
				<rect id="SVGID_1_" x="7.7" y="10.2" width="200.4" height="109.8"/>
			</defs>
			<clipPath id="SVGID_2_">
				<use xlink:href="#SVGID_1_"  style="overflow:visible;"/>
			</clipPath>
			<g class="st0">
				<g>
					<defs>
						<rect id="SVGID_3_" x="7.7" y="10.2" width="200.4" height="109.8"/>
					</defs>
					<clipPath id="SVGID_4_">
						<use xlink:href="#SVGID_3_"  style="overflow:visible;"/>
					</clipPath>
					<path class="st1" d="M73.2,89.3l0,1.6L73.2,89.3c11.2-0.1,21-2.1,29-6c6.9-3.3,12.7-8.2,17.3-14.3c8.2-11,11.4-24.2,13.7-36.9
						c1.3-7.2-1.4-11.9-3.9-14.7c-3.9-4.3-9.3-5.9-12.8-5.6c-1.5,0.1-4.2,1.2-7.6,2.7c-5.7,2.4-13.6,5.6-23.4,7.6
						c-11.7,2.4-23.5,2.4-35.2,0c-13.5-2.7-25.5-0.8-32.8,5.2C12,31.7,9.3,38.1,9.3,46.4c0,7.8,3.8,15.7,11,22.8
						c6,6,14,11,23.2,14.6C53,87.5,63.2,89.4,73.2,89.3"/>
				</g>
				<g>
					<defs>
						<rect id="SVGID_5_" x="7.7" y="10.2" width="200.4" height="109.8"/>
					</defs>
					<clipPath id="SVGID_6_">
						<use xlink:href="#SVGID_5_"  style="overflow:visible;"/>
					</clipPath>
					<path class="st2" d="M73.2,90.9C39.8,91.2,7.7,69.6,7.7,46.4c0-23.3,21.1-30.3,42.9-25.9c35.1,7.1,58.8-9.7,65.8-10.3
						c8.2-0.7,21.1,7.3,18.5,22.1C130.8,54.8,122.2,90.5,73.2,90.9"/>
				</g>
				<g>
					<defs>
						<rect id="SVGID_7_" x="7.7" y="10.2" width="200.4" height="109.8"/>
					</defs>
					<clipPath id="SVGID_8_">
						<use xlink:href="#SVGID_7_"  style="overflow:visible;"/>
					</clipPath>
					<path class="st3" d="M117.8,14.7L117.8,14.7c3.1,0,7.2,1.6,9.5,4.5c2,2.5,4.1,7.5,2.8,15.1c-4.1,19.9-11.6,52-57.1,52.4h-0.6
						C41.8,86.7,13,66.9,13,46.3c0-7.8,2.6-13.8,7.8-17.8c4.7-3.7,11.4-5.6,19.4-5.6c3.5,0,7.2,0.4,10.9,1.1
						c6.1,1.2,12.7,2.1,18.8,2.1c18.1,0,31.6-5.7,39.9-9c2.8-1.1,5-1.9,6.4-2.3C116.7,14.8,117.2,14.7,117.8,14.7 M117.8,12.3
						c-0.7,0-1.4,0.1-2.1,0.2c-6.5,1.5-22.5,12.1-46.1,12.1c-5.6,0-12.6-1.1-19-2.4c-3.8-0.8-7.7-1.2-11.4-1.2
						C23,21,10.6,28.3,10.6,46.3c0,22,30.2,42.4,61.8,42.4c0.2,0,0.4,0,0.7,0c46.7-0.4,54.3-34.2,58.7-55.5
						C134.4,20.2,125.2,12.3,117.8,12.3"/>
				</g>
				<g>
					<defs>
						<rect id="SVGID_9_" x="7.7" y="10.2" width="200.4" height="109.8"/>
					</defs>
					<clipPath id="SVGID_10_">
						<use xlink:href="#SVGID_9_"  style="overflow:visible;"/>
					</clipPath>
					<polygon class="st4" points="32,39.1 44.3,55.2 56.5,39.1 57.8,39.1 57.8,64.5 51.6,64.5 51.6,55.1 44.3,64.4 37,55.1 37,64.5 
						30.8,64.5 30.8,39.1 					"/>
				</g>
				<g>
					<defs>
						<rect id="SVGID_11_" x="7.7" y="10.2" width="200.4" height="109.8"/>
					</defs>
					<clipPath id="SVGID_12_">
						<use xlink:href="#SVGID_11_"  style="overflow:visible;"/>
					</clipPath>
					<polygon class="st5" points="60.9,39.1 78.3,39.1 78.3,45.3 67.4,45.3 67.4,48.7 75.8,48.7 75.8,54.9 67.4,54.9 67.4,58.3 
						78.3,58.3 78.3,64.5 60.9,64.5 					"/>
				</g>
				<g>
					<defs>
						<rect id="SVGID_13_" x="7.7" y="10.2" width="200.4" height="109.8"/>
					</defs>
					<clipPath id="SVGID_14_">
						<use xlink:href="#SVGID_13_"  style="overflow:visible;"/>
					</clipPath>
					<path class="st6" d="M79.6,64.5l12.2-25.3h1.5l12.2,25.3h-6.7l-1.9-3.8h-8.7l-1.9,3.8H79.6z M90.2,55.3h4.8l-2.4-5L90.2,55.3z"
						/>
				</g>
				<g>
					<defs>
						<rect id="SVGID_15_" x="7.7" y="10.2" width="200.4" height="109.8"/>
					</defs>
					<clipPath id="SVGID_16_">
						<use xlink:href="#SVGID_15_"  style="overflow:visible;"/>
					</clipPath>
					<polygon class="st7" points="100.8,39.1 120.5,39.1 120.5,45.3 114.1,45.3 114.3,64.5 107.3,64.5 107.3,45.3 100.8,45.3 					
						"/>
				</g>
				<g>
					<defs>
						<rect id="SVGID_17_" x="7.7" y="10.2" width="200.4" height="109.8"/>
					</defs>
					<clipPath id="SVGID_18_">
						<use xlink:href="#SVGID_17_"  style="overflow:visible;"/>
					</clipPath>
					<path class="st8" d="M184.5,50.8c-0.3-1.2-0.9-2.3-1.6-3.3c-0.5-0.7-1.1-1.4-1.8-2s-1.4-1.1-2.2-1.5c-0.8-0.4-1.6-0.7-2.5-1
						c-0.9-0.2-1.8-0.3-2.7-0.3c-1.1,0-2.2,0.1-3.2,0.4s-1.9,0.7-2.8,1.2s-1.6,1.1-2.3,1.9c-0.7,0.7-1.3,1.5-1.8,2.4
						c-0.5,0.9-0.9,1.8-1.1,2.8c-0.3,1-0.4,2-0.4,3.1c0,1.7,0.3,3.2,1,4.6c0.6,1.4,1.5,2.7,2.6,3.8c1.1,1.1,2.4,1.9,3.8,2.5
						c1.4,0.6,3,0.9,4.6,0.9c1.5,0,2.9-0.3,4.1-0.8c1.3-0.5,2.4-1.2,3.5-2.1c0.5-0.3,0.7-0.7,0.7-1c0-0.1,0-0.3-0.1-0.4
						c-0.1-0.1-0.2-0.3-0.3-0.5c-0.1-0.2-0.3-0.4-0.6-0.7c-0.2-0.3-0.5-0.6-0.8-1c-0.1-0.2-0.3-0.3-0.4-0.4s-0.3-0.1-0.4-0.1
						c-0.1,0-0.3,0-0.4,0.1c-0.1,0.1-0.3,0.2-0.4,0.3c0,0,0,0,0,0c-0.3,0.3-0.6,0.5-1,0.7c-0.4,0.2-0.8,0.4-1.2,0.6
						s-0.9,0.3-1.4,0.4s-1,0.2-1.6,0.2c-0.7,0-1.4-0.1-2.1-0.3s-1.4-0.6-2-1c-0.6-0.5-1.1-1-1.6-1.7c-0.4-0.7-0.7-1.4-0.9-2.3h16
						c0.4,0,0.8,0,1-0.1c0.2-0.1,0.4-0.2,0.5-0.3c0.1-0.1,0.2-0.3,0.2-0.6c0-0.2,0-0.5,0-0.9C185,53.3,184.8,52,184.5,50.8
						 M167.3,52.3c0.2-0.7,0.5-1.3,0.9-2c0.4-0.6,0.9-1.1,1.5-1.6c0.6-0.5,1.2-0.8,1.9-1c0.7-0.3,1.4-0.4,2.1-0.4
						c0.8,0,1.6,0.1,2.3,0.4c0.7,0.2,1.3,0.6,1.9,1s1,1,1.4,1.6c0.4,0.6,0.7,1.3,0.9,2H167.3z"/>
				</g>
				<g>
					<defs>
						<rect id="SVGID_19_" x="7.7" y="10.2" width="200.4" height="109.8"/>
					</defs>
					<clipPath id="SVGID_20_">
						<use xlink:href="#SVGID_19_"  style="overflow:visible;"/>
					</clipPath>
					<path class="st9" d="M188.4,37.5c0-0.3,0.1-0.6,0.3-0.8c0.2-0.2,0.4-0.3,0.8-0.3h3.1c0.2,0,0.5,0.1,0.7,0.3
						c0.2,0.2,0.3,0.5,0.3,0.8V65c0,0.4-0.1,0.6-0.3,0.8s-0.5,0.3-0.8,0.3h-3c-0.4,0-0.7-0.1-0.8-0.3s-0.2-0.4-0.2-0.8L188.4,37.5
						L188.4,37.5z"/>
				</g>
				<g>
					<defs>
						<rect id="SVGID_21_" x="7.7" y="10.2" width="200.4" height="109.8"/>
					</defs>
					<clipPath id="SVGID_22_">
						<use xlink:href="#SVGID_21_"  style="overflow:visible;"/>
					</clipPath>
					<path class="st10" d="M198.3,37.5c0-0.7,0.4-1.1,1.1-1.1h3c0.3,0,0.6,0.1,0.8,0.3s0.3,0.5,0.3,0.8v2.7c0,0.3-0.1,0.5-0.3,0.8
						c-0.2,0.3-0.5,0.4-0.8,0.4h-3c-0.7,0-1.1-0.4-1.1-1.2V37.5z"/>
				</g>
				<g>
					<defs>
						<rect id="SVGID_23_" x="7.7" y="10.2" width="200.4" height="109.8"/>
					</defs>
					<clipPath id="SVGID_24_">
						<use xlink:href="#SVGID_23_"  style="overflow:visible;"/>
					</clipPath>
					<path class="st11" d="M198.3,44.3c0-0.3,0.1-0.6,0.3-0.8c0.2-0.2,0.4-0.3,0.8-0.3h3c0.1,0,0.3,0,0.4,0.1c0.1,0,0.3,0.1,0.4,0.2
						s0.2,0.2,0.3,0.3c0.1,0.1,0.1,0.3,0.1,0.4V65c0,0.7-0.4,1.1-1.1,1.1h-3c-0.7,0-1.1-0.4-1.1-1.1V44.3z"/>
				</g>
				<g>
					<defs>
						<rect id="SVGID_25_" x="7.7" y="10.2" width="200.4" height="109.8"/>
					</defs>
					<clipPath id="SVGID_26_">
						<use xlink:href="#SVGID_25_"  style="overflow:visible;"/>
					</clipPath>
					<path class="st12" d="M158.9,47.5c-0.7-1.6-1.7-3-2.9-4.3c-1.2-1.2-2.7-2.2-4.3-2.8c-1.6-0.7-3.4-1-5.4-1h-8.7
						c-0.6,0-0.8,0.3-0.8,0.8v19.1h5.2v-15h4.1c1.2,0,2.3,0.2,3.3,0.6c1.1,0.4,2,1,2.7,1.7c0.8,0.7,1.4,1.6,1.9,2.6
						c0.4,1,0.7,2.2,0.7,3.4c0,1.2-0.2,2.3-0.6,3.3c-0.4,1-1,1.9-1.7,2.7c-0.7,0.8-1.6,1.4-2.6,1.8s-2.1,0.7-3.3,0.7
						c-0.9,0-1.8,0-2.7,0l-6.9,0v4.2c0,0.3,0.1,0.5,0.3,0.6c0.2,0.1,0.4,0.1,0.6,0.1h8.7c1.3,0,2.5-0.2,3.6-0.5
						c1.2-0.3,2.3-0.8,3.3-1.3c1-0.6,1.9-1.3,2.8-2.1c0.8-0.8,1.5-1.7,2.1-2.7c0.6-1,1.1-2.1,1.4-3.2c0.3-1.2,0.5-2.3,0.5-3.6
						C159.9,50.8,159.6,49.1,158.9,47.5"/>
				</g>
			</g>
		</g>
		<g>
			<defs>
				<rect id="SVGID_27_" x="7.7" y="10.2" width="200.4" height="109.8"/>
			</defs>
			<clipPath id="SVGID_28_">
				<use xlink:href="#SVGID_27_"  style="overflow:visible;"/>
			</clipPath>
		</g>
		<g>
			<defs>
				<rect id="SVGID_29_" x="7.7" y="10.2" width="200.4" height="109.8"/>
			</defs>
			<clipPath id="SVGID_30_">
				<use xlink:href="#SVGID_29_"  style="overflow:visible;"/>
			</clipPath>
			<g class="st13">
				<g>
					<defs>
						<rect id="SVGID_31_" x="7.7" y="10.2" width="200.4" height="109.8"/>
					</defs>
					<clipPath id="SVGID_32_">
						<use xlink:href="#SVGID_31_"  style="overflow:visible;"/>
					</clipPath>
					<g class="st14">
						<path class="st15" d="M15.5,116.3c-0.4,0.2-1.3,0.4-2.4,0.4c-3.3,0-4.9-2-4.9-4.7c0-3.2,2.3-5,5.1-5c1.1,0,1.9,0.2,2.3,0.4
							l-0.4,1.7c-0.4-0.2-1-0.3-1.8-0.3c-1.7,0-3,1-3,3.1c0,1.9,1.1,3.1,3,3.1c0.6,0,1.4-0.1,1.8-0.3L15.5,116.3z"/>
						<path class="st15" d="M25.1,111.7c0,3.1-1.9,4.9-4.6,4.9c-2.8,0-4.4-2.1-4.4-4.8c0-2.8,1.8-4.9,4.6-4.9
							C23.5,107,25.1,109.1,25.1,111.7z M18.3,111.8c0,1.8,0.9,3.1,2.3,3.1c1.4,0,2.3-1.4,2.3-3.2c0-1.7-0.8-3.1-2.3-3.1
							C19.1,108.7,18.3,110,18.3,111.8z M21.4,104.9l1.4,1.7h-1.5l-0.7-0.9h0l-0.7,0.9h-1.5l1.4-1.7H21.4z"/>
						<path class="st15" d="M26.5,116.5v-9.4H29l2,3.4c0.6,1,1.1,2.2,1.5,3.2h0c-0.1-1.2-0.2-2.5-0.2-3.9v-2.8h2v9.4H32l-2-3.6
							c-0.6-1-1.2-2.2-1.6-3.3l0,0c0.1,1.2,0.1,2.6,0.1,4.1v2.8L26.5,116.5L26.5,116.5z"/>
						<path class="st15" d="M44,116.1c-0.7,0.2-1.9,0.5-3.1,0.5c-1.7,0-3-0.4-3.8-1.3c-0.9-0.8-1.3-2-1.3-3.4c0-3.1,2.3-4.9,5.4-4.9
							c1.2,0,2.2,0.2,2.6,0.5l-0.5,1.7c-0.5-0.2-1.2-0.4-2.2-0.4c-1.8,0-3.1,1-3.1,3c0,1.9,1.2,3.1,3,3.1c0.5,0,0.9-0.1,1-0.1v-2
							h-1.5v-1.7H44L44,116.1L44,116.1z"/>
						<path class="st15" d="M48.4,116.5v-9.4h2.5l2,3.4c0.6,1,1.1,2.2,1.5,3.2h0c-0.1-1.2-0.2-2.5-0.2-3.9v-2.8h2v9.4H54l-2-3.6
							c-0.6-1-1.2-2.2-1.6-3.3l0,0c0.1,1.2,0.1,2.6,0.1,4.1v2.8L48.4,116.5L48.4,116.5z"/>
						<path class="st15" d="M65.9,116.1c-0.7,0.2-1.9,0.5-3.1,0.5c-1.7,0-3-0.4-3.8-1.3c-0.9-0.8-1.3-2-1.3-3.4
							c0-3.1,2.3-4.9,5.4-4.9c1.2,0,2.1,0.2,2.6,0.5l-0.4,1.7c-0.5-0.2-1.2-0.4-2.2-0.4c-1.8,0-3.1,1-3.1,3c0,1.9,1.2,3.1,3,3.1
							c0.5,0,0.9-0.1,1-0.1v-2h-1.5v-1.7h3.5V116.1z"/>
						<path class="st15" d="M69.7,107.1v3.6h3.5v-3.6h2.1v9.4h-2.1v-3.9h-3.5v3.9h-2.1v-9.4H69.7z"/>
						<path class="st15" d="M82.8,112.5h-3.5v2.2h3.9v1.7h-6v-9.4H83v1.7h-3.7v1.9h3.5L82.8,112.5L82.8,112.5z M80.9,104.9l1.4,1.7
							h-1.5l-0.7-0.9h0l-0.7,0.9h-1.5l1.4-1.7H80.9z M79.2,118.6c0-0.5,0.4-1,1-1c0.5,0,0.9,0.4,0.9,1c0,0.5-0.4,0.9-0.9,0.9
							C79.6,119.5,79.2,119.1,79.2,118.6z"/>
						<path class="st15" d="M88.7,108.9h-2.5v-1.8h7.2v1.8h-2.6v7.6h-2.1C88.7,116.5,88.7,108.9,88.7,108.9z"/>
						<path class="st15" d="M96.7,107.1v3.6h3.5v-3.6h2.1v9.4h-2.1v-3.9h-3.5v3.9h-2.1v-9.4H96.7z"/>
						<path class="st15" d="M106.3,107.1v9.4h-2.1v-9.4H106.3z M104.3,118.6c0-0.5,0.4-1,1-1c0.5,0,0.9,0.4,0.9,1
							c0,0.5-0.4,0.9-0.9,0.9C104.7,119.5,104.3,119.1,104.3,118.6z"/>
						<path class="st15" d="M110,108.9h-2.5v-1.8h7.2v1.8h-2.6v7.6H110C110,116.5,110,108.9,110,108.9z"/>
						<path class="st15" d="M126.6,112.9c0-1.1-0.1-2.5-0.1-3.9h0c-0.3,1.2-0.7,2.5-1.1,3.6l-1.1,3.7h-1.7l-1-3.6
							c-0.3-1.1-0.6-2.4-0.8-3.7h0c-0.1,1.3-0.1,2.7-0.2,3.9l-0.2,3.6h-2l0.6-9.4h2.8l0.9,3.1c0.3,1.1,0.6,2.3,0.8,3.4h0
							c0.3-1.1,0.6-2.3,0.9-3.4l1-3.1h2.8l0.5,9.4h-2.1L126.6,112.9z"/>
						<path class="st15" d="M132.6,114.1l-0.7,2.4h-2.2l2.9-9.4h2.8l2.9,9.4H136l-0.7-2.4H132.6z M135,112.5l-0.6-2
							c-0.2-0.6-0.3-1.3-0.5-1.8h0c-0.1,0.6-0.3,1.3-0.4,1.8l-0.6,2H135z M136.4,104.9l-1.7,1.7H133l1.2-1.7H136.4z"/>
						<path class="st15" d="M140.2,108.9h-2.5v-1.8h7.2v1.8h-2.6v7.6h-2.1L140.2,108.9L140.2,108.9z"/>
						<path class="st15" d="M155.8,116.3c-0.4,0.2-1.3,0.4-2.4,0.4c-3.3,0-4.9-2-4.9-4.7c0-3.2,2.3-5,5.1-5c1.1,0,1.9,0.2,2.3,0.4
							l-0.4,1.7c-0.4-0.2-1-0.3-1.8-0.3c-1.7,0-3,1-3,3.1c0,1.9,1.1,3.1,3,3.1c0.6,0,1.4-0.1,1.8-0.3L155.8,116.3z"/>
						<path class="st15" d="M159.3,107.1v3.6h3.5v-3.6h2.1v9.4h-2.1v-3.9h-3.5v3.9h-2.1v-9.4H159.3z"/>
						<path class="st15" d="M169,114.1l-0.7,2.4h-2.2l2.9-9.4h2.8l2.9,9.4h-2.3l-0.7-2.4H169z M171.2,104.9l1.4,1.7h-1.5l-0.7-0.9h0
							l-0.7,0.9h-1.5l1.4-1.7H171.2z M171.4,112.5l-0.6-2c-0.2-0.6-0.3-1.3-0.5-1.8h0c-0.1,0.6-0.3,1.3-0.4,1.8l-0.6,2H171.4z"/>
						<path class="st15" d="M177.6,107.1v5.4c0,1.6,0.6,2.4,1.7,2.4c1.1,0,1.7-0.8,1.7-2.4v-5.4h2.1v5.3c0,2.9-1.5,4.3-3.9,4.3
							c-2.4,0-3.8-1.3-3.8-4.3v-5.2H177.6z"/>
						<path class="st15" d="M190,114.1l-0.7,2.4h-2.2l2.9-9.4h2.8l2.9,9.4h-2.3l-0.7-2.4H190z M192.2,104.9l1.4,1.7h-1.5l-0.7-0.9h0
							l-0.7,0.9h-1.5l1.4-1.7H192.2z M192.4,112.5l-0.6-2c-0.2-0.6-0.3-1.3-0.5-1.8h0c-0.1,0.6-0.3,1.3-0.4,1.8l-0.6,2H192.4z"/>
						<path class="st15" d="M198.6,107.1v5.4c0,1.6,0.6,2.4,1.7,2.4c1.1,0,1.7-0.8,1.7-2.4v-5.4h2.1v5.3c0,2.9-1.5,4.3-3.9,4.3
							c-2.4,0-3.8-1.3-3.8-4.3v-5.2H198.6z"/>
					</g>
				</g>
				<g>
					<defs>
						<rect id="SVGID_33_" x="7.7" y="10.2" width="200.4" height="109.8"/>
					</defs>
					<clipPath id="SVGID_34_">
						<use xlink:href="#SVGID_33_"  style="overflow:visible;"/>
					</clipPath>
					<rect x="7.7" y="97.8" class="st16" width="195.8" height="0.7"/>
				</g>
			</g>
		</g>
	</g>
</g>
</svg>
